Coordinates
version=1
nRows=18
nColumns=19
inDegrees=yes

Units are S.I. units (second, meters, Newtons, ...)
If the header above contains a line with 'inDegrees', this indicates whether rotational values are in degrees (yes) or radians (no).

endheader
time	pelvis_tilt	pelvis_list	pelvis_rotation	pelvis_tx	pelvis_ty	pelvis_tz	hip_flexion_r	hip_adduction_r	hip_rotation_r	knee_angle_r	knee_angle_r_beta	ankle_angle_r	hip_flexion_l	hip_adduction_l	hip_rotation_l	knee_angle_l	knee_angle_l_beta	ankle_angle_l
     11.90666667	     -7.12755566	     -6.74772277	      0.11813577	      2.20751640	      0.96281032	      1.05297128	     22.28037463	      9.99627820	     -1.48624433	      2.71254278	      0.04734280	      4.80511921	    -12.30789034	    -13.42845587	    -22.41946380	     54.41292669	      0.94968473	    -15.74060521
     11.91333333	     -6.98175257	     -7.40738758	     -0.63755366	      2.20681822	      0.95865974	      1.05436004	     22.55874036	     10.95401827	     -2.12107965	      5.57596117	      0.09731888	      4.48531582	    -11.37285155	    -14.50892673	    -22.55332223	     57.94620763	      1.01135211	    -15.36410544
     11.92000000	     -6.29282279	     -8.20573687	     -1.42215294	      2.20596784	      0.95469851	      1.05560255	     22.39127971	     11.99670861	     -2.91380295	      8.93487163	      0.15594293	      4.38738401	    -11.02940109	    -15.69896372	    -22.78773886	     61.36571606	      1.07103379	    -14.99043795
     11.92666667	     -6.85902847	     -8.51842059	     -2.39904039	      2.20443368	      0.94919213	      1.05699559	     23.97247632	     12.47333335	     -3.76356627	     13.26338249	      0.23148969	      4.66305285	     -9.02653941	    -16.30976896	    -22.55287587	     64.96677730	      1.13388417	    -14.53227464
     11.93333333	     -6.79730209	     -8.89661286	     -3.27230443	      2.20289069	      0.94417570	      1.05803292	     24.73761104	     12.93559211	     -4.44801442	     17.44707790	      0.30450895	      5.18512016	     -7.65895772	    -16.93893467	    -22.28826251	     68.36385717	      1.19317440	    -14.05850269
     11.94000000	     -5.85564322	     -9.58707237	     -3.92988987	      2.20148452	      0.94013770	      1.05858314	     24.23841048	     13.61646826	     -4.92166288	     21.10878404	      0.36841778	      5.95852297	     -7.24071425	    -17.86196189	    -22.04661921	     71.51554425	      1.24818171	    -13.53877052
     11.94666667	     -6.47157603	     -9.52425859	     -4.73639996	      2.19937739	      0.93461483	      1.05925116	     25.60785173	     13.57517046	     -5.12142377	     25.20359030	      0.43988563	      7.18231282	     -4.66009729	    -17.87011379	    -21.07268582	     74.79184943	      1.30536403	    -12.91481074
     11.95333333	     -6.17237482	     -9.82819754	     -5.29219796	      2.19743862	      0.93046481	      1.05948957	     25.55102123	     13.85973173	     -5.08287962	     28.49523991	      0.49733576	      8.68615167	     -3.05419196	    -18.21526277	    -20.12099799	     77.76854928	      1.35731724	    -12.23000030
     11.96000000	     -5.84470024	    -10.16662962	     -5.70219921	      2.19540532	      0.92686648	      1.05951914	     25.17328415	     14.17181026	     -4.88603833	     31.26031027	      0.54559534	     10.42273929	     -1.30052569	    -18.53320008	    -18.92484989	     80.57110584	      1.40623108	    -11.45919272
     11.96666667	     -5.47496190	    -10.51582817	     -5.98639892	      2.19332740	      0.92393823	      1.05942703	     24.43712193	     14.49922528	     -4.53373073	     33.47079016	      0.58417549	     12.36011769	      0.55893371	    -18.80179567	    -17.53753341	     83.16080036	      1.45142977	    -10.58239418
     11.97333333	     -4.72805962	    -10.95015793	     -6.23508427	      2.19136890	      0.92209560	      1.05935291	     22.89826935	     14.96032075	     -3.88284923	     35.01907046	      0.61119808	     14.46901841	      1.98774402	    -19.13073292	    -16.27521524	     85.41037279	      1.49069222	     -9.63377622
     11.98000000	     -4.52713688	    -11.24390494	     -5.97831149	      2.18931436	      0.92043134	      1.05878508	     21.73886341	     15.09308515	     -3.77285073	     36.04742679	      0.62914628	     16.36760521	      4.49448399	    -19.14379309	    -14.09408163	     87.55789509	      1.52817356	     -8.55918145
     11.98666667	     -4.32281138	    -11.48896337	     -5.84836617	      2.18747300	      0.91942617	      1.05849016	     20.22236384	     15.30221040	     -3.28809649	     36.51205955	      0.63725566	     18.26303487	      6.89388462	    -19.10716460	    -12.18691018	     89.35047301	      1.55945994	     -7.39569845
     11.99333333	     -4.04194200	    -11.68061808	     -5.53397051	      2.18583952	      0.91918510	      1.05821403	     18.31055930	     15.43977593	     -2.81718669	     36.37998550	      0.63495053	     19.94469227	      9.27201295	    -18.94713930	    -10.16697842	     90.80926982	      1.58492075	     -6.17137419
     12.00000000	     -3.87911859	    -11.75877515	     -5.14118191	      2.18446189	      0.91947761	      1.05796735	     16.25318041	     15.47465787	     -2.31927212	     35.73617038	      0.62371384	     21.30714522	     11.75932623	    -18.63612736	     -8.19299251	     91.92318153	      1.60436218	     -4.87452507
     12.00666667	     -3.84447453	    -11.69682000	     -4.66760076	      2.18340848	      0.92019757	      1.05786860	     14.09370700	     15.39579834	     -1.79734171	     34.62868501	      0.60438457	     22.35186875	     14.34735045	    -18.14448965	     -6.27041144	     92.68675283	      1.61768901	     -3.59837691
     12.01333333	     -3.91739520	    -11.49575477	     -4.14454176	      2.18265551	      0.92130757	      1.05793182	     11.85169641	     15.20376459	     -1.24371775	     33.12899865	      0.57821010	     22.99511546	     16.96189621	    -17.50412823	     -4.49844781	     93.09528334	      1.62481921	     -2.32094890
     12.02000000	     -4.20164020	    -10.97174428	     -3.89662423	      2.18218252	      0.92273775	      1.05839529	      9.69841112	     14.76342509	     -0.32449686	     31.43761937	      0.54868997	     23.29189742	     19.52899323	    -16.62181131	     -3.30111915	     93.07303133	      1.62443084	     -1.03710744
